<?xml version="1.0" encoding="utf-8"?>
<!-- Generator: Adobe Illustrator 24.0.2, SVG Export Plug-In . SVG Version: 6.00 Build 0)  -->
<svg version="1.1" id="Capa_1" xmlns="http://www.w3.org/2000/svg" xmlns:xlink="http://www.w3.org/1999/xlink" x="0px" y="0px"
	 viewBox="0 0 253 74" style="enable-background:new 0 0 253 74;" xml:space="preserve">
<style type="text/css">
	.st0{fill:#FFFFFF;}
	.st1{fill:none;stroke:#FFFFFF;stroke-width:2;stroke-linecap:round;}
	.st2{font-family:'Montserrat-Regular';}
	.st3{font-size:20px;}
</style>
<g id="Logo_Intranet" transform="translate(-595 -9.5)">
	<g id="logo_tgr" transform="translate(-52 -1.448)">
		<g id="estrella" transform="translate(647 10.948)">
			<g id="est_sup" transform="translate(7.528)">
				<path id="pe0" class="st0" d="M37.7,22.1c0-0.1-0.1-0.1-0.2-0.1c0,0-0.1,0-0.1,0.1l-1.9,5.7l-0.5,1.4h5L37.7,22.1z"/>
			</g>
			<g id="est_inf" transform="translate(10.974 12.502)">
				<path id="pe1" class="st0" d="M35.2,24.5l5.2,3.7c0.1,0,0.1,0,0.2,0c0,0,0-0.1,0-0.1l-2.1-6c0-0.1-0.1-0.1-0.2-0.1c0,0,0,0,0,0
					l-3.2,2.3C35.1,24.3,35.1,24.4,35.2,24.5C35.2,24.5,35.2,24.5,35.2,24.5"/>
			</g>
			<g id="est_centro" transform="translate(0 7.079)">
				<path id="pe2" class="st0" d="M41.1,26.4l-5.9-4.2c-0.1,0-0.1-0.1,0-0.2c0,0,0.1-0.1,0.1-0.1h19.4c0.1,0,0.1,0.1,0.1,0.1
					c0,0,0,0.1-0.1,0.1L39.1,33.6c-0.1,0-0.2,0-0.2,0c0,0,0-0.1,0-0.1l2.3-6.9C41.2,26.5,41.1,26.4,41.1,26.4"/>
			</g>
		</g>
		<g id="TGR" transform="translate(663.12 18.024)">
			<g id="R" transform="translate(36.139)">
				<path id="pt0" class="st0" d="M41.1,31.8c0,0.1,0.1,0.1,0.1,0.2c0,0,0,0,0,0h3.5c2.1,0,3.3-1.1,3.5-3c0.2-1.9-0.9-2.9-3-2.9
					h-3.6c-0.1,0-0.1,0.1-0.1,0.1L41.1,31.8z M47.1,41.7c-0.1,0-0.1,0-0.1-0.1L44.4,36h-3.6c-0.1,0-0.1,0.1-0.1,0.1l-0.5,5.4
					c0,0.1-0.1,0.1-0.1,0.1h-4.8c-0.1,0-0.1-0.1-0.1-0.1c0,0,0,0,0,0l1.8-19.5C36.9,22,37,22,37,22h8.6c5.2,0,7.9,2.5,7.5,6.8
					c-0.1,2.6-1.6,5-3.9,6.2c-0.1,0-0.1,0.1-0.1,0.2l2.8,6.3c0,0.1,0,0.2-0.1,0.2c0,0,0,0-0.1,0L47.1,41.7z"/>
			</g>
			<g id="G" transform="translate(17.392)">
				<path id="pt1" class="st0" d="M42.4,33.8h6.5c0.1,0,0.1,0.1,0.1,0.1c0,0,0,0,0,0l-0.2,2.4c0,0,0,0.1-0.1,0.1
					c-1,0.5-2.2,0.8-3.4,0.9c-2.7,0.1-5-2-5.1-4.7c0-0.3,0-0.6,0-0.9c0.3-3.1,2.8-5.5,6-5.5c1.7,0,2.8,0.1,4,1.4c0,0,0.1,0.1,0.2,0
					c0,0,0,0,0,0l3.8-2.7c0.1-0.1,0.1-0.2,0-0.2c0,0,0,0,0,0c-2.1-1.8-4.8-2.8-7.5-2.7c-6.1,0-11.1,4.2-11.6,9.8s3.6,9.4,9.4,9.9
					c2.9,0.1,5.8-0.7,8.2-2.4c0,0,0.1-0.1,0.1-0.1l0.5-5.3l0.3-3.1c0-0.1,0-0.1-0.1-0.2c0,0,0,0,0,0h-7.1c0,0-0.1,0-0.1,0l-4.1,2.9
					c-0.1,0-0.1,0.1,0,0.2C42.4,33.8,42.4,33.8,42.4,33.8"/>
			</g>
			<g id="T" transform="translate(0 0.008)">
				<path id="pt2" class="st0" d="M57.9,22H40.8c0,0-0.1,0-0.1,0l-5.5,4c-0.1,0.1-0.1,0.1,0,0.2c0,0,0.1,0.1,0.1,0.1h7.6
					c0.1,0,0.1,0.1,0.1,0.1c0,0,0,0,0,0l-1.5,15.2c0,0.1,0.1,0.1,0.1,0.2c0,0,0,0,0,0h4.9c0.1,0,0.1-0.1,0.1-0.1l1.5-15.2
					c0-0.1,0.1-0.1,0.1-0.1h4c0.1,0,0.1,0,0.2-0.1l5.5-4c0.1,0,0.1-0.1,0-0.2C58,22,58,22,57.9,22"/>
			</g>
		</g>
	</g>
	<line id="Línea_15" class="st1" x1="708.6" y1="33.5" x2="708.6" y2="61.5"/>
	<text transform="matrix(1 0 0 1 717.127 55.9644)" class="st0 st2 st3">INTRANET</text>
</g>
</svg>
